<?xml version="1.0" encoding="UTF-8"?>
<svg width="366px" height="304px" viewBox="0 0 366 304" version="1.1" xmlns="http://www.w3.org/2000/svg" xmlns:xlink="http://www.w3.org/1999/xlink">
    <!-- Generator: Sketch 62 (91390) - https://sketch.com -->
    <title>Search</title>
    <desc>Created with Sketch.</desc>
    <defs>
        <rect id="path-1" x="0.8" y="-5.68434189e-14" width="357.2" height="295.2" rx="3.2"></rect>
        <filter x="-1.9%" y="-1.9%" width="103.8%" height="104.6%" filterUnits="objectBoundingBox" id="filter-3">
            <feMorphology radius="0.25" operator="dilate" in="SourceAlpha" result="shadowSpreadOuter1"></feMorphology>
            <feOffset dx="0" dy="1" in="shadowSpreadOuter1" result="shadowOffsetOuter1"></feOffset>
            <feGaussianBlur stdDeviation="2" in="shadowOffsetOuter1" result="shadowBlurOuter1"></feGaussianBlur>
            <feComposite in="shadowBlurOuter1" in2="SourceAlpha" operator="out" result="shadowBlurOuter1"></feComposite>
            <feColorMatrix values="0 0 0 0 0   0 0 0 0 0   0 0 0 0 0  0 0 0 0.5 0" type="matrix" in="shadowBlurOuter1"></feColorMatrix>
        </filter>
        <path d="M6.45,5.01666667 C7.24160814,5.01666667 7.88333333,5.65839186 7.88333333,6.45 C7.88333333,7.24160814 7.24160814,7.88333333 6.45,7.88333333 C5.65839186,7.88333333 5.01666667,7.24160814 5.01666667,6.45 L5.01666667,5.01666667 L6.45,5.01666667 Z M3.58333333,6.45 C3.58333333,7.24160814 2.94160814,7.88333333 2.15,7.88333333 C1.35839186,7.88333333 0.716666667,7.24160814 0.716666667,6.45 C0.716666667,5.65839186 1.35839186,5.01666667 2.15,5.01666667 L3.58333333,5.01666667 L3.58333333,6.45 Z M2.15,3.58333333 C1.35839186,3.58333333 0.716666667,2.94160814 0.716666667,2.15 C0.716666667,1.35839186 1.35839186,0.716666667 2.15,0.716666667 C2.94160814,0.716666667 3.58333333,1.35839186 3.58333333,2.15 L3.58333333,3.58333333 L2.15,3.58333333 Z M5.01666667,2.15 C5.01666667,1.35839186 5.65839186,0.716666667 6.45,0.716666667 C7.24160814,0.716666667 7.88333333,1.35839186 7.88333333,2.15 C7.88333333,2.94160814 7.24160814,3.58333333 6.45,3.58333333 L5.01666667,3.58333333 L5.01666667,2.15 Z M3.58333333,3.58333333 L3.58333333,5.01666667 L5.01666667,5.01666667 L5.01666667,3.58333333 L3.58333333,3.58333333 Z M2.86666667,2.86666667 L2.86666667,2.15 C2.86666667,1.75419593 2.54580407,1.43333333 2.15,1.43333333 C1.75419593,1.43333333 1.43333333,1.75419593 1.43333333,2.15 C1.43333333,2.54580407 1.75419593,2.86666667 2.15,2.86666667 L2.86666667,2.86666667 Z M2.86666667,5.73333333 L2.15,5.73333333 C1.75419593,5.73333333 1.43333333,6.05419593 1.43333333,6.45 C1.43333333,6.84580407 1.75419593,7.16666667 2.15,7.16666667 C2.54580407,7.16666667 2.86666667,6.84580407 2.86666667,6.45 L2.86666667,5.73333333 Z M5.73333333,6.45 C5.73333333,6.84580407 6.05419593,7.16666667 6.45,7.16666667 C6.84580407,7.16666667 7.16666667,6.84580407 7.16666667,6.45 C7.16666667,6.05419593 6.84580407,5.73333333 6.45,5.73333333 L5.73333333,5.73333333 L5.73333333,6.45 Z M6.45,2.86666667 C6.84580407,2.86666667 7.16666667,2.54580407 7.16666667,2.15 C7.16666667,1.75419593 6.84580407,1.43333333 6.45,1.43333333 C6.05419593,1.43333333 5.73333333,1.75419593 5.73333333,2.15 L5.73333333,2.86666667 L6.45,2.86666667 Z M5.73333333,5.73333333 L2.86666667,5.73333333 L2.86666667,2.86666667 L5.73333333,2.86666667 L5.73333333,5.73333333 Z" id="path-4"></path>
        <path d="M6.45,5.01666667 C7.24160814,5.01666667 7.88333333,5.65839186 7.88333333,6.45 C7.88333333,7.24160814 7.24160814,7.88333333 6.45,7.88333333 C5.65839186,7.88333333 5.01666667,7.24160814 5.01666667,6.45 L5.01666667,5.01666667 L6.45,5.01666667 Z M3.58333333,6.45 C3.58333333,7.24160814 2.94160814,7.88333333 2.15,7.88333333 C1.35839186,7.88333333 0.716666667,7.24160814 0.716666667,6.45 C0.716666667,5.65839186 1.35839186,5.01666667 2.15,5.01666667 L3.58333333,5.01666667 L3.58333333,6.45 Z M2.15,3.58333333 C1.35839186,3.58333333 0.716666667,2.94160814 0.716666667,2.15 C0.716666667,1.35839186 1.35839186,0.716666667 2.15,0.716666667 C2.94160814,0.716666667 3.58333333,1.35839186 3.58333333,2.15 L3.58333333,3.58333333 L2.15,3.58333333 Z M5.01666667,2.15 C5.01666667,1.35839186 5.65839186,0.716666667 6.45,0.716666667 C7.24160814,0.716666667 7.88333333,1.35839186 7.88333333,2.15 C7.88333333,2.94160814 7.24160814,3.58333333 6.45,3.58333333 L5.01666667,3.58333333 L5.01666667,2.15 Z M3.58333333,3.58333333 L3.58333333,5.01666667 L5.01666667,5.01666667 L5.01666667,3.58333333 L3.58333333,3.58333333 Z M2.86666667,2.86666667 L2.86666667,2.15 C2.86666667,1.75419593 2.54580407,1.43333333 2.15,1.43333333 C1.75419593,1.43333333 1.43333333,1.75419593 1.43333333,2.15 C1.43333333,2.54580407 1.75419593,2.86666667 2.15,2.86666667 L2.86666667,2.86666667 Z M2.86666667,5.73333333 L2.15,5.73333333 C1.75419593,5.73333333 1.43333333,6.05419593 1.43333333,6.45 C1.43333333,6.84580407 1.75419593,7.16666667 2.15,7.16666667 C2.54580407,7.16666667 2.86666667,6.84580407 2.86666667,6.45 L2.86666667,5.73333333 Z M5.73333333,6.45 C5.73333333,6.84580407 6.05419593,7.16666667 6.45,7.16666667 C6.84580407,7.16666667 7.16666667,6.84580407 7.16666667,6.45 C7.16666667,6.05419593 6.84580407,5.73333333 6.45,5.73333333 L5.73333333,5.73333333 L5.73333333,6.45 Z M6.45,2.86666667 C6.84580407,2.86666667 7.16666667,2.54580407 7.16666667,2.15 C7.16666667,1.75419593 6.84580407,1.43333333 6.45,1.43333333 C6.05419593,1.43333333 5.73333333,1.75419593 5.73333333,2.15 L5.73333333,2.86666667 L6.45,2.86666667 Z M5.73333333,5.73333333 L2.86666667,5.73333333 L2.86666667,2.86666667 L5.73333333,2.86666667 L5.73333333,5.73333333 Z" id="path-6"></path>
        <path d="M7.16666667,1.075 C7.3645687,1.075 7.525,1.2354313 7.525,1.43333333 L7.525,1.43333333 L7.525,3.94166667 C7.525,4.93117684 6.72284351,5.73333333 5.73333333,5.73333333 L5.73333333,5.73333333 L2.298,5.733 L3.47837993,6.91328674 C3.59832668,7.03323348 3.61546193,7.21705911 3.52978568,7.35525696 L3.47837993,7.4200466 C3.33844206,7.55998447 3.11155794,7.55998447 2.97162007,7.4200466 L2.97162007,7.4200466 L1.1799534,5.62837993 L1.1799534,5.62837993 L1.13619771,5.57534757 C1.13493092,5.57347248 1.13368141,5.57158475 1.13244941,5.56968462 C1.12668394,5.5608667 1.121245,5.5515895 1.11625814,5.54213619 C1.10964586,5.52958439 1.10366524,5.51642032 1.09848454,5.50286089 C1.09463229,5.49271217 1.09131648,5.48266338 1.08845655,5.47251318 C1.07972645,5.4418326 1.075,5.40896826 1.075,5.375 L1.07913606,5.42944491 C1.07745874,5.41847417 1.07629157,5.40744051 1.07563458,5.3963822 L1.075,5.375 C1.075,5.36788366 1.07520744,5.36081577 1.07561662,5.35380205 C1.07622212,5.34322045 1.0774085,5.33185439 1.07913606,5.32055509 C1.08142246,5.30548663 1.084572,5.29108195 1.08855758,5.27702876 C1.09131648,5.26733662 1.09463229,5.25728783 1.09840396,5.2473728 C1.10366524,5.23357968 1.10964586,5.22041561 1.1163687,5.2077046 C1.13262212,5.17684356 1.15385388,5.14771959 1.1799534,5.12162007 L1.13244941,5.18031538 C1.14620671,5.15909721 1.16214745,5.13942603 1.1799534,5.12162007 L2.97162007,3.3299534 C3.11155794,3.19001553 3.33844206,3.19001553 3.47837993,3.3299534 C3.6183178,3.46989127 3.6183178,3.69677539 3.47837993,3.83671326 L3.47837993,3.83671326 L2.299,5.016 L5.73333333,5.01666667 C6.28745903,5.01666667 6.7436612,4.59740621 6.80202538,4.05879976 L6.80833333,3.94166667 L6.80833333,1.43333333 C6.80833333,1.2354313 6.96876463,1.075 7.16666667,1.075 Z" id="path-8"></path>
        <path d="M7.16666667,1.075 C7.3645687,1.075 7.525,1.2354313 7.525,1.43333333 L7.525,1.43333333 L7.525,3.94166667 C7.525,4.93117684 6.72284351,5.73333333 5.73333333,5.73333333 L5.73333333,5.73333333 L2.298,5.733 L3.47837993,6.91328674 C3.59832668,7.03323348 3.61546193,7.21705911 3.52978568,7.35525696 L3.47837993,7.4200466 C3.33844206,7.55998447 3.11155794,7.55998447 2.97162007,7.4200466 L2.97162007,7.4200466 L1.1799534,5.62837993 L1.1799534,5.62837993 L1.13619771,5.57534757 C1.13493092,5.57347248 1.13368141,5.57158475 1.13244941,5.56968462 C1.12668394,5.5608667 1.121245,5.5515895 1.11625814,5.54213619 C1.10964586,5.52958439 1.10366524,5.51642032 1.09848454,5.50286089 C1.09463229,5.49271217 1.09131648,5.48266338 1.08845655,5.47251318 C1.07972645,5.4418326 1.075,5.40896826 1.075,5.375 L1.07913606,5.42944491 C1.07745874,5.41847417 1.07629157,5.40744051 1.07563458,5.3963822 L1.075,5.375 C1.075,5.36788366 1.07520744,5.36081577 1.07561662,5.35380205 C1.07622212,5.34322045 1.0774085,5.33185439 1.07913606,5.32055509 C1.08142246,5.30548663 1.084572,5.29108195 1.08855758,5.27702876 C1.09131648,5.26733662 1.09463229,5.25728783 1.09840396,5.2473728 C1.10366524,5.23357968 1.10964586,5.22041561 1.1163687,5.2077046 C1.13262212,5.17684356 1.15385388,5.14771959 1.1799534,5.12162007 L1.13244941,5.18031538 C1.14620671,5.15909721 1.16214745,5.13942603 1.1799534,5.12162007 L2.97162007,3.3299534 C3.11155794,3.19001553 3.33844206,3.19001553 3.47837993,3.3299534 C3.6183178,3.46989127 3.6183178,3.69677539 3.47837993,3.83671326 L3.47837993,3.83671326 L2.299,5.016 L5.73333333,5.01666667 C6.28745903,5.01666667 6.7436612,4.59740621 6.80202538,4.05879976 L6.80833333,3.94166667 L6.80833333,1.43333333 C6.80833333,1.2354313 6.96876463,1.075 7.16666667,1.075 Z" id="path-10"></path>
        <path d="M4.2,0.8 C6.07776815,0.8 7.6,2.32223185 7.6,4.2 C7.6,4.99510328 7.3270746,5.72646141 6.86979699,6.30550122 L8.68284271,8.11715729 C8.83905243,8.273367 8.83905243,8.526633 8.68284271,8.68284271 C8.526633,8.83905243 8.273367,8.83905243 8.11715729,8.68284271 L8.11715729,8.68284271 L6.30550122,6.86979699 C5.72646141,7.3270746 4.99510328,7.6 4.2,7.6 C2.32223185,7.6 0.8,6.07776815 0.8,4.2 C0.8,2.32223185 2.32223185,0.8 4.2,0.8 Z M4.2,1.6 C2.76405965,1.6 1.6,2.76405965 1.6,4.2 C1.6,5.63594035 2.76405965,6.8 4.2,6.8 C4.91353217,6.8 5.55993186,6.51257168 6.02973201,6.0471821 L6.03715729,6.03715729 C6.03999174,6.03432284 6.04285814,6.03153982 6.04575535,6.02880823 C6.51257168,5.55993186 6.8,4.91353217 6.8,4.2 C6.8,2.76405965 5.63594035,1.6 4.2,1.6 Z" id="path-12"></path>
    </defs>
    <g id="Page-1" stroke="none" stroke-width="1" fill="none" fill-rule="evenodd">
        <g id="Landing-Page---RadiumLaw" transform="translate(-268.000000, -500.000000)">
            <g id="Search" transform="translate(272.000000, 503.000000)">
                <mask id="mask-2" fill="white">
                    <use xlink:href="#path-1"></use>
                </mask>
                <g id="Rectangle">
                    <use fill="black" fill-opacity="1" filter="url(#filter-3)" xlink:href="#path-1"></use>
                    <use stroke="#979797" stroke-width="0.5" fill="#D8D8D8" fill-rule="evenodd" xlink:href="#path-1"></use>
                </g>
                <rect id="Rectangle" stroke="#979797" stroke-width="0.5" fill="#FFFFFF" mask="url(#mask-2)" x="-15.2" y="-9.2" width="387" height="360"></rect>
                <text id="CIVIL-CODE---CIV-DIV" mask="url(#mask-2)" font-family="HelveticaNeue, Helvetica Neue" font-size="5.2" font-weight="normal" letter-spacing="-0.0800000012" fill="#000000">
                    <tspan x="22.4" y="31.8">CIVIL CODE - CIV</tspan>
                    <tspan x="22.4" y="37.8">DIVISION 1. PERSONS [38 - 86]  ( Heading of Division 1 amended by Stats. 1988, Ch. 160, Sec. 12. )</tspan>
                    <tspan x="22.4" y="43.8"></tspan>
                    <tspan x="22.4" y="49.8">PART 2. PERSONAL RIGHTS [43 - 53.7]  ( Part 2 enacted 1872. )</tspan>
                    <tspan x="22.4" y="55.8"></tspan>
                    <tspan x="22.4" y="61.8">43.  Besides the personal rights mentioned or recognized in the Government Code, every person has, subject to the qualifications and restrictions </tspan>
                    <tspan x="22.4" y="67.8">provided by law, the right of protection from bodily restraint or harm, from personal insult, from defamation, and from injury to his personal relations.</tspan>
                    <tspan x="22.4" y="73.8">(Amended by Stats. 1953, Ch. 604.)</tspan>
                    <tspan x="22.4" y="79.8"></tspan>
                    <tspan x="22.4" y="85.8">43.1.  A child conceived, but not yet born, is deemed an existing person, so far as necessary for the child’s interests in the event of the child’s </tspan>
                    <tspan x="22.4" y="91.8">subsequent birth.</tspan>
                    <tspan x="22.4" y="97.8">(Added by Stats. 1992, Ch. 163, Sec. 4. Effective January 1, 1993. Operative January 1, 1994, by Sec. 161 of Ch. 163.)</tspan>
                    <tspan x="22.4" y="103.8"></tspan>
                    <tspan x="22.4" y="109.8">43.3.  Notwithstanding any other provision of law, a mother may breastfeed her child in any location, public or private, except the private home or </tspan>
                    <tspan x="22.4" y="115.8">residence of another, where the mother and the child are otherwise authorized to be present.</tspan>
                    <tspan x="22.4" y="121.8">(Added by Stats. 1997, Ch. 59, Sec. 1. Effective January 1, 1998.)</tspan>
                    <tspan x="22.4" y="127.8"></tspan>
                    <tspan x="22.4" y="133.8">43.4.  A fraudulent promise to marry or to cohabit after marriage does not give rise to a cause of action for damages.</tspan>
                    <tspan x="22.4" y="139.8">(Added by Stats. 1959, Ch. 381.)</tspan>
                    <tspan x="22.4" y="145.8"></tspan>
                    <tspan x="22.4" y="151.8">43.5.  No cause of action arises for:</tspan>
                    <tspan x="22.4" y="157.8">(a) Alienation of affection.</tspan>
                    <tspan x="22.4" y="163.8">(b) Criminal conversation.</tspan>
                    <tspan x="22.4" y="169.8">(c) Seduction of a person over the age of legal consent.</tspan>
                    <tspan x="22.4" y="175.8">(d) Breach of promise of marriage.</tspan>
                    <tspan x="22.4" y="181.8">(Added by Stats. 1939, Ch. 128.)</tspan>
                    <tspan x="22.4" y="187.8"></tspan>
                    <tspan x="22.4" y="193.8">43.55.  (a) There shall be no liability on the part of, and no cause of action shall arise against, any peace officer who makes an arrest pursuant to a </tspan>
                    <tspan x="22.4" y="199.8">warrant of arrest regular upon its face if the peace officer in making the arrest acts without malice and in the reasonable belief that the person </tspan>
                    <tspan x="22.4" y="205.8">arrested is the one referred to in the warrant.</tspan>
                    <tspan x="22.4" y="211.8">(b) As used in this section, a “warrant of arrest regular upon its face” includes both of the following:</tspan>
                    <tspan x="22.4" y="217.8">(1) A paper arrest warrant that has been issued pursuant to a judicial order.</tspan>
                    <tspan x="22.4" y="223.8">(2) A judicial order that is entered into an automated warrant system by law enforcement or court personnel authorized to make those entries at or </tspan>
                    <tspan x="22.4" y="229.8">near the time the judicial order is made.</tspan>
                    <tspan x="22.4" y="235.8">(Amended by Stats. 2005, Ch. 706, Sec. 2. Effective January 1, 2006.)</tspan>
                    <tspan x="22.4" y="241.8"></tspan>
                    <tspan x="22.4" y="247.8">43.56.  No cause of action arises against a foster parent for alienation of affection of a foster child.</tspan>
                    <tspan x="22.4" y="253.8">(Added by renumbering Section 43.55 (as amended by Stats. 1988, Ch. 195) by Stats. 1990, Ch. 216, Sec. 5.)</tspan>
                    <tspan x="22.4" y="259.8"></tspan>
                    <tspan x="22.4" y="265.8">43.6.  (a) No cause of action arises against a parent of a child based upon the claim that the child should not have been conceived or, if conceived, </tspan>
                    <tspan x="22.4" y="271.8">should not have been allowed to have been born alive.</tspan>
                    <tspan x="22.4" y="277.8">(b) The failure or refusal of a parent to prevent the live birth of his or her child shall not be a defense in any action against a third party, nor shall the </tspan>
                    <tspan x="22.4" y="283.8">failure or refusal be considered in awarding damages in any such action.</tspan>
                    <tspan x="22.4" y="289.8">(c) As used in this section “conceived” means the fertilization of a human ovum by a human sperm.</tspan>
                    <tspan x="22.4" y="295.8">(Added by Stats. 1981, Ch. 331, Sec. 1.)</tspan>
                    <tspan x="22.4" y="301.8"></tspan>
                    <tspan x="22.4" y="307.8">43.7.  (a) There shall be no monetary liability on the part of, and no cause of action for damages shall arise against, any member of a duly appointed </tspan>
                    <tspan x="22.4" y="313.8">mental health professional quality assurance committee that is established in compliance with Section 14725 of the Welfare and Institutions Code, </tspan>
                    <tspan x="22.4" y="319.8">for any act or proceeding undertaken or performed within the scope of the functions of the committee which is formed to review and evaluate the </tspan>
                    <tspan x="22.4" y="325.8">adequacy, appropriateness, or effectiveness of the care and treatment planned for, or provided to, mental health patients in order to improve quality </tspan>
                    <tspan x="22.4" y="331.8">of care by mental health professionals if the committee member acts without malice, has made a reasonable effort to obtain the facts of the matter </tspan>
                    <tspan x="22.4" y="337.8">as to which he or she acts, and acts in reasonable belief that the action taken by him or her is warranted by the facts known to him or her after the </tspan>
                    <tspan x="22.4" y="343.8">reasonable effort to obtain facts.</tspan>
                </text>
                <g id="SearchBar" mask="url(#mask-2)">
                    <g transform="translate(44.000000, 76.000000)">
                        <rect id="Rectangle" stroke="#979797" stroke-width="0.5" fill="#000000" fill-rule="evenodd" x="0" y="0" width="285.2" height="142.8" rx="3.6"></rect>
                        <g id="ShiftKey" stroke="none" stroke-width="1" fill="none" fill-rule="evenodd" transform="translate(236.000000, 22.000000)">
                            <rect id="Rectangle" fill="#D8D8D8" opacity="0.42124721" x="0" y="0" width="12" height="11" rx="2"></rect>
                            <path d="M3.08162492,6.04490629 C2.5329303,6.04490629 2.39423565,5.71389463 2.76602858,5.31240427 C2.76602858,5.31240427 5.82453717,2 5.88786618,2 C5.9511952,2 9.01837137,5.3217581 9.01837137,5.3217581 C9.38797997,5.72114182 9.23498317,6.04490629 8.69410745,6.04490629 L7.40104262,6.04490629 L7.40104262,9.078586 L4.37730766,9.078586 L4.37730766,6.04490629 L3.08162492,6.04490629 Z" id="Shift-On" fill="#FFFFFF"></path>
                        </g>
                        <g id="CommandKey" stroke="none" stroke-width="1" fill="none" fill-rule="evenodd" transform="translate(252.000000, 22.000000)">
                            <rect id="Rectangle" fill="#D8D8D8" opacity="0.42124721" x="0" y="0" width="12" height="11" rx="2"></rect>
                            <g id="command" transform="translate(1.800000, 1.000000)">
                                <mask id="mask-5" fill="white">
                                    <use xlink:href="#path-4"></use>
                                </mask>
                                <use id="Shape" fill="#000000" fill-rule="nonzero" xlink:href="#path-4"></use>
                                <g id="COLOR/-white" mask="url(#mask-5)" fill="#FFFFFF" fill-rule="evenodd">
                                    <rect id="Rectangle" x="0" y="0" width="8.6" height="8.6"></rect>
                                </g>
                            </g>
                        </g>
                        <g id="CommandKey" stroke="none" stroke-width="1" fill="none" fill-rule="evenodd" transform="translate(252.000000, 7.000000)">
                            <rect id="Rectangle" fill="#D8D8D8" opacity="0.42124721" x="0" y="0" width="12" height="11" rx="2"></rect>
                            <g id="command" transform="translate(1.800000, 1.000000)">
                                <mask id="mask-7" fill="white">
                                    <use xlink:href="#path-6"></use>
                                </mask>
                                <use id="Shape" fill="#000000" fill-rule="nonzero" xlink:href="#path-6"></use>
                                <g id="COLOR/-white" mask="url(#mask-7)" fill="#FFFFFF" fill-rule="evenodd">
                                    <rect id="Rectangle" x="0" y="0" width="8.6" height="8.6"></rect>
                                </g>
                            </g>
                        </g>
                        <g id="Group-6" stroke="none" stroke-width="1" fill="none" fill-rule="evenodd" transform="translate(268.000000, 22.000000)">
                            <rect id="Rectangle" fill="#D8D8D8" opacity="0.42124721" x="0" y="0" width="12" height="11" rx="2"></rect>
                            <g id="corner-down-left" transform="translate(1.200000, 0.800000)">
                                <mask id="mask-9" fill="white">
                                    <use xlink:href="#path-8"></use>
                                </mask>
                                <use id="Combined-Shape" fill="#000000" fill-rule="nonzero" xlink:href="#path-8"></use>
                                <g id="COLOR/-white" mask="url(#mask-9)" fill="#FFFFFF" fill-rule="evenodd">
                                    <rect id="Rectangle" x="0" y="0" width="8.6" height="8.6"></rect>
                                </g>
                            </g>
                        </g>
                        <g id="Group-6" stroke="none" stroke-width="1" fill="none" fill-rule="evenodd" transform="translate(268.000000, 7.000000)">
                            <rect id="Rectangle" fill="#D8D8D8" opacity="0.42124721" x="0" y="0" width="12" height="11" rx="2"></rect>
                            <g id="corner-down-left" transform="translate(1.200000, 0.800000)">
                                <mask id="mask-11" fill="white">
                                    <use xlink:href="#path-10"></use>
                                </mask>
                                <use id="Combined-Shape" fill="#000000" fill-rule="nonzero" xlink:href="#path-10"></use>
                                <g id="COLOR/-white" mask="url(#mask-11)" fill="#FFFFFF" fill-rule="evenodd">
                                    <rect id="Rectangle" x="0" y="0" width="8.6" height="8.6"></rect>
                                </g>
                            </g>
                        </g>
                        <rect id="Rectangle" stroke="#979797" stroke-width="0.5" fill-opacity="0.52" fill="#D8D8D8" fill-rule="evenodd" x="20.4" y="36.4" width="259.6" height="16.4"></rect>
                        <text id="split-screen" stroke="none" fill="none" font-family="HelveticaNeue, Helvetica Neue" font-size="7" font-weight="normal" letter-spacing="-0.000700000053">
                            <tspan x="196" y="31" fill="#B9B7B3">split screen</tspan>
                        </text>
                        <text id="Go-to-Section-6-[Pun" stroke="none" fill="none" font-family="HelveticaNeue, Helvetica Neue" font-size="8.4" font-weight="normal" letter-spacing="-0.000840000063">
                            <tspan x="29.6" y="47.6" fill="#E4E1DE">Go to Section 6 [Punitive remedies] </tspan>
                            <tspan x="29.6" y="57.6" fill="#E4E1DE"></tspan>
                            <tspan x="29.6" y="67.6" fill="#E4E1DE">Go to Section 7 [ Definitions ]</tspan>
                            <tspan x="29.6" y="77.6" fill="#E4E1DE"></tspan>
                            <tspan x="29.6" y="87.6" fill="#E4E1DE">Go to Section 5 [ Personal Rights ]</tspan>
                            <tspan x="29.6" y="97.6" fill="#E4E1DE"></tspan>
                            <tspan x="29.6" y="107.6" fill="#E4E1DE">Related: Section 15 Supreme Court</tspan>
                            <tspan x="29.6" y="117.6" fill="#E4E1DE"></tspan>
                            <tspan x="29.6" y="127.6" fill="#E4E1DE">Related: Civil Procedure ss. 10 </tspan>
                        </text>
                        <text id="new-tab" stroke="none" fill="none" font-family="HelveticaNeue, Helvetica Neue" font-size="7" font-weight="normal" letter-spacing="-0.000700000053">
                            <tspan x="196" y="17" fill="#B9B7B3">new tab </tspan>
                        </text>
                        <g id="search" stroke="none" fill="none" transform="translate(7.200000, 9.200000)">
                            <mask id="mask-13" fill="white">
                                <use xlink:href="#path-12"></use>
                            </mask>
                            <use id="Combined-Shape" fill="#000000" fill-rule="nonzero" xlink:href="#path-12"></use>
                            <g id="COLOR/-white" mask="url(#mask-13)" fill="#FFFFFF" fill-rule="evenodd">
                                <rect id="Rectangle" x="0" y="0" width="9.6" height="9.6"></rect>
                            </g>
                        </g>
                        <text id="Go-to-section-6,-art" stroke="none" fill="none" font-family="HelveticaNeue, Helvetica Neue" font-size="8.4" font-weight="normal" letter-spacing="-0.000840000063">
                            <tspan x="29.6" y="17.2" fill="#E4E3E0">Go to section 6, article 440, CIV</tspan>
                        </text>
                    </g>
                </g>
            </g>
        </g>
    </g>
</svg>